<svg xmlns="http://www.w3.org/2000/svg" viewBox="0 0 640 480">
  <rect width="640" height="480" fill="#b22234"/>
  <path d="M0 60h640M0 180h640M0 300h640M0 420h640" stroke="#fff" stroke-width="40"/>
  <rect width="320" height="240" fill="#3c3b6e"/>
  <g fill="#fff">
    <circle cx="40" cy="40" r="6"/>
    <circle cx="80" cy="40" r="6"/>
    <circle cx="120" cy="40" r="6"/>
    <circle cx="160" cy="40" r="6"/>
    <circle cx="200" cy="40" r="6"/>
    <circle cx="240" cy="40" r="6"/>
    <circle cx="280" cy="40" r="6"/>
    <circle cx="40" cy="80" r="6"/>
    <circle cx="80" cy="80" r="6"/>
    <circle cx="120" cy="80" r="6"/>
    <circle cx="160" cy="80" r="6"/>
    <circle cx="200" cy="80" r="6"/>
    <circle cx="240" cy="80" r="6"/>
    <circle cx="280" cy="80" r="6"/>
    <circle cx="40" cy="120" r="6"/>
    <circle cx="80" cy="120" r="6"/>
    <circle cx="120" cy="120" r="6"/>
    <circle cx="160" cy="120" r="6"/>
    <circle cx="200" cy="120" r="6"/>
    <circle cx="240" cy="120" r="6"/>
    <circle cx="280" cy="120" r="6"/>
    <circle cx="40" cy="160" r="6"/>
    <circle cx="80" cy="160" r="6"/>
    <circle cx="120" cy="160" r="6"/>
    <circle cx="160" cy="160" r="6"/>
    <circle cx="200" cy="160" r="6"/>
    <circle cx="240" cy="160" r="6"/>
    <circle cx="280" cy="160" r="6"/>
    <circle cx="40" cy="200" r="6"/>
    <circle cx="80" cy="200" r="6"/>
    <circle cx="120" cy="200" r="6"/>
    <circle cx="160" cy="200" r="6"/>
    <circle cx="200" cy="200" r="6"/>
    <circle cx="240" cy="200" r="6"/>
    <circle cx="280" cy="200" r="6"/>
  </g>
</svg>